<svg width="24" height="24" xmlns="http://www.w3.org/2000/svg"><g fill="none" fill-rule="evenodd"><g transform="rotate(90 4.768 16.696)"><circle fill="#151515" cx="5.572" cy="2.964" r="2.5"/><path d="M.072 15.607c0 2.682 2.238 4.857 5 4.857 2.761 0 5-2.175 5-4.857 0-2.683-2.5-4.857-5-4.857V3.464" stroke="#151515" stroke-width="2" stroke-linecap="round" stroke-linejoin="round"/></g><g transform="translate(1.464 .928)"><ellipse fill="#151515" transform="rotate(-150 4.924 16.437)" cx="4.924" cy="16.437" rx="2.388" ry="2.365"/><path d="M14.957 8.866c1.325-2.251.539-5.13-1.757-6.429-2.296-1.3-5.231-.528-6.557 1.723-1.325 2.25-.321 5.252 1.757 6.428l-3.6 6.113" stroke="#151515" stroke-width="2" stroke-linecap="round" stroke-linejoin="round"/></g><g transform="translate(7.464 3.928)"><ellipse fill="#151515" transform="rotate(-30 4.8 3.299)" cx="4.8" cy="3.299" rx="2.388" ry="2.365"/><path d="M6.643 15.84c1.326 2.25 4.261 3.022 6.557 1.723 2.296-1.3 3.082-4.178 1.757-6.429-1.326-2.25-4.479-2.899-6.557-1.722L4.8 3.299" stroke="#151515" stroke-width="2" stroke-linecap="round" stroke-linejoin="round"/></g></g></svg>